<svg width="943" height="943" viewBox="0 0 943 943" fill="none" xmlns="http://www.w3.org/2000/svg">
<g clip-path="url(#clip0_224_1321)">
<path fill-rule="evenodd" clip-rule="evenodd" d="M472 777.96C499.614 777.96 522 800.345 522 827.96C522 855.574 499.614 877.96 472 877.96C444.386 877.96 422 855.574 422 827.96C422 800.345 444.386 777.96 472 777.96ZM432.311 832.96C434.771 852.691 451.602 867.96 472 867.96C492.398 867.96 509.229 852.691 511.69 832.96H432.311ZM472 787.96C451.602 787.96 434.771 803.228 432.311 822.96H511.69C509.229 803.228 492.398 787.96 472 787.96Z" fill="#DB6143"/>
<path d="M480.929 592.868C509.247 591.063 531.393 598.195 558.551 601.567C561.913 609.118 573.857 640.36 569.57 646.928C564.13 650.276 555.096 649.176 548.601 648.95C550.761 646.904 551.541 646.304 553.184 643.732L552.483 642.382C547.286 641.155 539.03 643.366 533.283 643.379C528.292 643.388 524.862 642.922 519.932 642.281C523.377 640.568 525.953 639.817 527.642 636.662C523.151 633.206 507.752 638.597 502.05 633.378L504.665 630.318C499.462 627.663 487.939 633.51 482.078 634.277C478.425 634.755 474.677 634.646 471.013 634.581L479.325 626.259C473.619 627.836 452.138 635.424 447.734 633.255L449.843 630.072L449.383 628.854C431.832 630.096 412.981 653.951 412.405 671.75C412.07 681.563 415.76 691.087 422.618 698.115C435.021 710.897 464.502 716.779 478.103 703.449L477.181 702.084C476.035 701.948 474.893 701.788 473.754 701.603C466.879 700.475 464.431 699.396 460.407 693.84C462.534 691.384 500.598 697.717 513.47 654.724C515.165 687.02 514.359 712.363 486.151 733.254C488.202 728.693 492.562 718.996 488.843 714.788C485.694 714.814 476.632 721.318 471.909 723.378C467.636 725.194 463.157 726.479 458.572 727.21C406.157 735.692 368.112 671.246 405.659 628.918C428.88 602.74 447.497 597.019 480.929 592.868Z" fill="#DB6143"/>
<path d="M539.538 203.259C542.042 203.079 542.299 202.981 544.666 203.662C544.928 205.259 544.571 206.507 543.18 207.453C498.136 238.1 502.812 267.89 519.725 313.547C527.045 333.306 537.347 361.93 544.521 383.513C539.35 385.311 534.064 389.225 528.829 390.235C528.476 390.303 526.75 387.647 524.857 387.543C513.095 386.895 502.104 393.993 492.901 400.547C488.066 388.019 462.477 313.451 458.337 310.067L456.618 310.278C451.637 313.697 440.624 343.74 437.588 351.113L404.307 433.096C398.277 448.036 378.509 494.334 375.247 508.016L376.309 509.117C379.009 510.177 382.419 510.904 385.401 510.879C418.67 510.595 452.004 510.757 485.268 510.746C491.32 510.745 525.5 511.982 528.292 508.096C528.787 500.74 519.54 478.621 516.645 469.818C532.494 465.511 556.364 459.904 573.001 459.445C573.631 462.144 574.335 464.825 575.113 467.485C577.15 474.237 579.837 481.431 582.257 488.108C592.268 514.051 600.057 541.166 610.559 566.904C623.189 597.855 630.997 635.132 653.894 660.145C664.946 672.221 677.644 675.839 691.938 682.017C694.263 683.023 694.989 684.387 695.643 686.562L694.047 688.452C691.253 689.743 687.435 690.868 684.399 690.744C664.032 689.912 643.613 689.189 623.255 688.772C598.877 688.272 568.95 692.199 545.262 688.939L544.714 687.626C547.823 676.563 575.59 677.551 575.718 654.028C575.752 645.39 574.756 636.778 572.752 628.376C569.804 616.226 544.836 544.001 538.62 538.152C535.795 535.495 381.295 536.92 364.418 537.443C357.851 547.58 334.348 607.38 332.091 620.096C326.214 650.687 331.079 668.414 362.896 679.105C367.643 680.701 373.137 683.038 371.474 688.882C362.962 693.395 311.772 688.217 298.585 688.531C279.96 688.345 261.337 690.479 242.7 690.631C236.573 690.681 223.804 692.198 222.555 684.344C224.657 681.828 241.415 677.273 246.469 675.07C280.706 660.152 294.893 624.93 308.228 593.035C314.977 576.716 321.628 560.357 328.18 543.959C329.307 540.983 328.362 539.948 326.569 538.033C322.051 536.517 308.715 537.249 303.146 537.359C272.954 537.955 251.726 549.125 231.317 570.771C240.88 531.531 253.626 526.202 282.26 499.578C286.298 502.853 290.671 506.384 296.092 508.197C305.127 511.712 330.903 513.678 339.327 509.635C345.428 506.708 357.859 472.648 360.821 465.424L386.614 402.991L412.505 340.541C420.595 320.975 436.234 294.346 425.411 274.371C410.597 247.026 374.86 251.603 351.592 263.873C332.915 273.721 319.963 288.522 313.861 308.718C324.158 319.849 326.264 323.23 329.049 338.62C329.578 341.54 330.409 344.228 332.916 345.817C343.248 341.245 344.01 313.047 344.671 303.004C352.221 299.873 354.211 298.939 359.838 292.969C366.502 292.156 379.824 291.076 382.995 299.145C378.367 299.367 373.613 296.796 370.599 299.133C366.268 302.488 357.628 301.956 356.854 307.597C361.226 310.455 380.261 304.978 389.36 314.831C390.564 318.47 390.437 316.902 389.561 320.886C386.007 320.777 383.154 316.95 378.413 315.812C372.244 324.079 367.904 316.288 359.78 322.143L359.58 323.95C363.317 328.243 367.774 326.619 372.93 325.893C379.863 331.544 383.3 334.788 388.329 342.009C384.132 339.386 381.436 337.2 376.391 336.987C370.026 336.717 360.946 334.417 356.22 339.823C355.213 343.475 355.214 341.95 356.215 345.603C358.658 348.001 361.266 348.124 364.719 348.851L364.21 350.077C359.74 352.345 353.522 350.416 348.975 349.109C347.201 354.956 340.362 375.204 339.937 379.624C341.919 383.548 343.583 383.784 348.174 385.677C333.382 403.856 329.66 358.617 317.098 363.503C308.306 366.923 314.142 378.76 316.845 384.063C328.391 406.726 349.719 416.865 372.523 424.719C365.917 442.139 357.716 461.023 350.198 478.09C323.277 469.609 292.77 451.54 276.227 428.207C271.375 421.363 268.054 413.127 264.089 407.927L262.621 407.815L260.534 411.569C257.785 405.441 255.708 399.034 254.337 392.459C253.295 387.378 252.266 370.662 250.789 368.775C248.393 370.008 247.19 372.894 245.748 375.38C240.856 364.195 250.462 345.138 249.385 335.594L247.908 334.602C244.229 335.595 241.808 338.808 239.103 341.649C243.495 317.766 257.431 308.113 259.649 299.201L258.638 298.26C254.825 298.799 252.742 299.61 249.124 300.857C248.315 291.608 272.457 276.338 273.591 271.004C271.019 268.741 268.532 268.942 264.776 267.834C272.438 258.919 290.484 252.827 293.652 247.21C292.17 245.138 289.315 245.367 286.047 244.788L285.986 243.937C293.664 237.96 304.938 235.938 314.535 233.139C302.968 245.241 295.971 254.414 291.223 270.583C309.516 241.439 328.26 220.199 363.277 212.097C409.893 201.311 433.808 217.374 470.898 240.335C495.01 230.231 503.529 207.398 539.538 203.259Z" fill="#DB6143"/>
<path d="M560.235 385.988C559.647 386.625 559.075 387.276 558.521 387.942C556.84 389.971 553.029 395.166 553.259 397.766C555.783 398.007 571.25 390.358 575.882 389.105C586.408 386.258 592.31 386.502 603.008 386.418C599.268 388.593 593.153 391.38 592.294 395.763C596.921 397.112 610.67 392.767 617.104 392.593C627.278 392.316 631.177 392.738 641.002 395.111C635.886 396.319 629.993 397.385 626.024 400.953C628.858 404.222 645.612 401.887 652.591 403.542C661.16 405.574 662.596 406.249 670.513 409.885C666.91 410.67 661.759 411.452 659.433 414.089C660.569 416.967 663.566 416.988 667.18 417.958C680.567 421.548 689.368 427.396 700.586 435.241C695.971 435.191 688.339 434.598 684.991 437.539C686.503 439.725 695.829 442.7 699.495 445.419C709.988 453.201 714.707 458.516 721.785 469.202C719.374 468.126 716.947 467.085 714.506 466.079C711.508 464.868 709.653 464.179 706.762 465.408C706.384 472.26 718.843 477.298 723.688 485.975C729.903 497.107 730.605 501.064 733.111 513.194C730.566 509.804 726.434 503.118 721.88 504.505C719.624 511.378 727.777 525.91 728.22 533.338C728.549 538.874 727.111 547.286 726.338 552.878C724.608 547.323 724.214 544.175 719.234 541.033C714.465 542.46 721.871 568.204 712.092 581.677L710.999 581.656C710.341 579.149 709.624 576.656 708.851 574.181L707.7 574.392C703.517 581.117 698.299 607.642 689.181 609.946C689.13 607.541 689.339 606.053 688.188 603.997C681.643 606.1 682.871 619.365 668.086 626.446L666.817 625.918L667.501 620.419L666.471 620.056C662.525 622.497 651.01 632.932 644.676 637.446C638.636 627.732 634.715 615.742 630.57 604.958L626.135 592.252C649.255 580.143 663.056 559 663.453 532.719C663.806 512.13 655.843 492.267 641.363 477.622C592.413 428.271 503.921 469.284 448.309 481.901C428.637 486.364 408.776 486.376 388.711 486.295C396.303 468.851 403.253 450.567 410.902 432.863C417.123 429.605 436.9 415.825 442.299 416.365C441.965 419.131 441.569 421.29 441.032 423.99L442.22 425.087C446.795 423.906 457.723 413.921 463.412 410.745C472.962 405.414 476.894 404.528 487.287 401.602C484.358 405.074 480.764 408.272 480.047 412.536C481.729 413.356 482.771 412.965 484.679 411.69C500.276 401.271 505.949 395.881 524.31 391.199C519.506 395.421 517.981 396.831 515.226 402.567L515.834 403.963C523.508 403.665 532.402 394.036 539.693 390.684C546.551 387.532 549.857 386.864 557.146 385.794L560.235 385.988Z" fill="#DB6143"/>
<path d="M83.2804 417.861C107.28 411.431 121.78 437.959 119.28 456.459C117.108 472.537 105.115 485.218 97.4171 490.887C96.5915 491.496 97.0206 492.959 98.0461 492.959H130.78V420.959C130.781 419.855 131.676 418.959 132.78 418.959H138.78C139.885 418.959 140.78 419.855 140.78 420.959V492.959H159.78C160.885 492.959 161.78 493.854 161.78 494.959V500.959C161.78 502.063 160.885 502.959 159.78 502.959H140.78V528.959C140.78 530.063 139.885 530.959 138.78 530.959H132.78C131.676 530.959 130.78 530.063 130.78 528.959V502.959H70.7804C69.6759 502.959 68.7804 502.063 68.7804 500.959V494.492C68.7806 493.588 69.3843 492.8 70.2511 492.543C83.327 488.669 103.22 478.165 107.28 457.459C111.78 434.51 96.2804 427.459 88.2804 427.459C80.5517 427.459 72.8047 432.592 75.9123 446.466C76.1101 447.349 75.7343 448.27 74.9152 448.655C72.8692 449.617 69.77 450.83 67.7257 451.517C66.8776 451.802 65.9644 451.431 65.5685 450.629C60.7399 440.841 60.8355 423.875 83.2804 417.861Z" fill="#DB6143"/>
<path d="M830.781 460C837.409 460 842.781 465.372 842.781 472C842.781 478.627 837.409 484 830.781 484C824.154 484 818.781 478.627 818.781 472C818.781 465.372 824.154 460 830.781 460Z" fill="#DB6143"/>
<path fill-rule="evenodd" clip-rule="evenodd" d="M830.781 422C858.396 422 880.781 444.386 880.781 472C880.781 499.614 858.396 522 830.781 522C803.167 522 780.781 499.614 780.781 472C780.781 444.386 803.167 422 830.781 422ZM830.781 432C808.69 432 790.781 449.908 790.781 472C790.781 494.091 808.69 512 830.781 512C852.873 512 870.781 494.091 870.781 472C870.781 449.908 852.873 432 830.781 432Z" fill="#DB6143"/>
<path d="M636.758 314.32C659.759 311.663 676.174 348.946 696.476 354.535C704.892 356.852 708.255 352.792 715.479 351.619C714.553 355.221 710.653 355.177 709.668 358.428C715.538 359.829 719.426 359.385 725.028 357.536L726.71 356.42L726.845 357.156C725.362 359.184 723.991 360.843 721.815 362.053C694.821 377.056 673.765 343.868 657.332 327.738C652.217 322.718 642.729 317.771 636.758 314.32Z" fill="#DB6143"/>
<path fill-rule="evenodd" clip-rule="evenodd" d="M584.064 198.609C588.199 201.384 591.76 229.202 616.007 242.842C606.864 226.217 606.647 224.421 609.367 206.04C609.935 207.985 611.986 215.205 612.951 216.568C620.817 227.674 634.09 249.46 644.997 256.482C660.506 266.466 672.201 264.371 672.934 286.546C683.962 295.272 693.658 295.176 705.033 302.124C718.183 310.156 701.904 333.655 693.107 334.118L691.11 329.576C688.852 329.149 686.613 331.004 684.093 332.344C683.37 330.654 686.022 328.248 686.279 323.948L684.588 322.333C678.926 323.253 681.23 326.835 675.763 327.881L674.865 326.884C675.548 324.499 675.676 324.356 675.088 322.027C669.362 315.356 640.874 303.144 635.586 313.703C637.722 320.867 642.698 326.635 646.44 332.79C652.468 342.706 651.698 335.967 656.897 337.147C655.45 339.469 654.302 340.807 654.069 343.514C657.458 347.528 663.17 345.346 667.039 342.985L668.055 343.477L666.315 349.654C665.771 359.31 659.187 359.741 650.769 358.654C636.49 356.812 640.584 346.844 633.162 336.94C621.608 321.523 602.83 311.075 585.329 303.565C582.919 302.548 571.446 300.765 568.32 300.252C572.8 298.071 579.97 295.299 582.137 291.097L581.318 289.191C578.551 287.558 556.676 282.771 552.322 281.677C556.855 279.86 561.41 277.746 565.876 275.745C543.702 274.149 535.8 275.027 515.908 284.598C511.48 268.257 512.533 259.445 517.145 243.65C520.731 242.544 522.717 241.934 526.154 240.348C526.33 237.605 525.273 237.048 523.512 234.335L524.262 233.571C530.52 232.779 536.226 238.177 540.779 234.69C541.374 231.636 540.063 229.885 538.638 226.993C551.059 230.024 561.785 240.675 568.453 239.737L569.512 238.07C569.713 234.688 567.236 230.875 565.579 227.735C576.155 234.026 582.567 241.597 591.815 249.581C587.516 227.855 577.841 225.349 584.064 198.609ZM641.837 275.674C646.734 285.502 648.159 287.924 659.838 286.408C656.555 276.894 651.006 276.791 641.837 275.674Z" fill="#DB6143"/>
<path d="M310.34 225.875C313.528 225.568 318.581 224.715 321.362 225.762C320.859 228.305 319.649 228.526 317.207 230.513L315.497 231.598C313.631 229.739 312.537 228.824 310.446 227.219L310.34 225.875Z" fill="#DB6143"/>
<path fill-rule="evenodd" clip-rule="evenodd" d="M471.417 60.4851C471.803 59.8227 472.76 59.8227 473.146 60.4851L529.906 157.957C530.27 158.582 529.87 159.356 529.183 159.45L529.042 159.46H415.521L415.38 159.45C414.693 159.356 414.293 158.582 414.656 157.957L471.417 60.4851ZM431.177 149.46H513.386L472.281 78.8728L431.177 149.46Z" fill="#DB6143"/>
<path fill-rule="evenodd" clip-rule="evenodd" d="M454.855 32.3396C697.563 22.8853 902.029 211.668 911.649 454.094C921.268 696.52 732.403 900.873 489.708 910.636L486.862 910.742C246.144 918.901 43.5378 732.079 32.4738 491.748L32.3517 488.907C22.7608 247.21 210.452 43.401 452.01 32.4597L454.855 32.3396ZM901.656 454.491C892.257 217.591 692.447 33.0931 455.244 42.3328C217.828 51.5811 32.9349 251.398 42.3439 488.51C51.7532 725.625 251.902 910.196 489.306 900.645C726.496 891.103 911.057 691.389 901.656 454.491Z" fill="#DB6143"/>
<path fill-rule="evenodd" clip-rule="evenodd" d="M453.297 0.364994C713.479 -9.77957 932.665 192.785 942.977 452.911C953.289 713.035 750.827 932.308 490.659 942.785L487.61 942.898C228.545 951.687 10.6588 749.608 0.377107 490.264C-9.90423 230.922 191.3 12.2326 450.248 0.492924L453.297 0.364994ZM920.994 453.782C911.164 205.796 702.204 12.677 454.154 22.3484C205.881 32.0288 12.5193 241.184 22.3595 489.393L22.4845 492.3C33.8363 739.11 242.484 930.761 489.775 920.802C736.842 910.853 929.316 703.397 921.1 456.686L920.994 453.782Z" fill="#DB6143"/>
</g>
<defs>
<clipPath id="clip0_224_1321">
<rect width="943" height="943" fill="white"/>
</clipPath>
</defs>
</svg>
