<svg width="1024" height="1024" viewBox="0 0 1024 1024" fill="none" xmlns="http://www.w3.org/2000/svg">
<path d="M527.392 728.194C543.688 727.755 623.431 734.044 636.845 740.518C642.587 748.411 657.544 801.581 659.102 812.509C647.118 812.486 621.499 805.615 609.477 802.452C588.704 796.996 570.034 792.112 548.798 788.219C515.338 782.087 474.19 779.683 445.019 800.273C428.843 811.69 418.59 826.909 415.18 846.478C411.771 866.042 417.501 888.801 428.869 904.851C442.741 923.758 465.949 936.807 487.996 944.127C492.727 945.699 504.737 948.058 508.465 950.12L508.302 950.754C506.583 951.267 504.994 951.66 503.196 951.711C466.866 952.631 435.987 945.158 408.506 920.351C365.828 883.03 372.56 813.882 407.98 774.176C436.968 741.678 485.523 729.628 527.392 728.194ZM365.756 98.8555C370.694 98.3108 381.236 98.753 386.338 99.0254C415.32 100.572 437.793 104.919 464.282 116.965C516.531 140.724 549.537 181.498 574.052 232.188C579.554 243.575 582.526 252.47 587.303 263.686C603.763 302.327 616.575 341.905 631.652 381.177C613.408 385.568 595.061 389.68 577.011 394.807C564.282 398.422 553.07 402.097 540.078 405.081C537.299 399.193 532.851 385.707 530.413 379.026L511.248 326.851L498.31 292.652C496.598 288.141 490.074 268.785 486.223 267.019L485.468 267.48C480.255 275.728 470.631 300.039 466.664 309.544C454.946 337.427 443.489 365.42 432.294 393.517L384.991 510.879C381.179 520.252 353.81 584.637 354.508 589.937C361.496 592.484 420.462 591.356 432.432 591.333L528.14 591.393C543.901 591.457 559.668 591.444 575.43 591.347C580.368 591.337 600.023 592.553 602.325 588.706C602.292 581.326 588.394 544.778 584.533 536.043C608.063 526.998 639.369 520.474 664.3 518.019C668.119 517.644 674.906 516.534 678.249 517.565C681.245 521.514 687.098 539.321 689.151 544.939L713.356 612.982C727.805 654.899 742.892 696.585 758.626 738.034C771.304 770.966 786.076 809.199 810.452 834.996C822.071 847.291 843.349 854.569 859.305 858.962C866.078 860.83 873.218 862.101 879.695 865.028L880.37 865.334C881.609 875.077 881.521 883.441 879.584 893.161C872.944 894.114 853.821 893.401 846.428 893.508C815.464 894.396 784.287 891.419 753.393 891.742C711.655 892.186 670.13 894.465 628.319 893.443C625.776 887.973 624.2 873.37 626.054 867.706C626.812 865.385 628.634 863.951 630.779 862.938C634.191 861.334 638.301 860.728 641.935 859.762C650.568 857.468 659.746 855.087 667.828 851.249C672.942 848.821 677.075 845.506 678.925 839.953C687.936 812.907 657.443 736.55 647.433 708.64L634.469 672.466C631.704 664.776 629.008 656.961 625.832 649.434C624.232 645.637 622.212 642.238 620.432 638.525C609.441 636.556 583.41 637.328 570.848 637.342L482.998 637.333L388.044 637.342L358.887 637.333C351.497 637.338 343.645 637.162 336.356 638.128C331.051 643.746 322.138 668.905 318.525 677.751C305.696 709.148 292.458 741.003 281.521 773.094C275.673 790.253 266.264 821.317 274.592 838.209C282.015 853.26 309.574 857.265 324.834 862.49C327.441 863.679 328.249 864.238 330.52 865.819C330.663 866.467 330.784 867.114 330.882 867.771C331.564 872.205 331.879 888.473 329.147 892.366C328.541 893.231 326.942 893.411 325.89 893.435C317.214 893.61 308.103 893.684 299.44 893.55C290.235 893.212 280.466 893.905 271.308 893.401C235.386 891.427 199.901 890.983 163.977 893.092C145.572 894.174 126.348 893.277 107.895 893.661C102.597 893.772 97.2507 892.31 98.0868 886.16C98.4623 879.308 97.389 871.318 100.568 864.955C101.136 863.818 104.348 862.791 105.48 862.416C120.291 859.124 134.94 856.571 149.006 850.532C162.984 844.373 177.959 835.833 188.262 824.379C211.643 798.387 225.783 761.363 238.948 729.568L264.155 668.559L330.527 506.848L410.083 315.062C415.673 301.399 421.748 287.861 427.331 274.163C433.832 258.213 442.49 241.543 442.458 223.842C442.39 187.036 401.369 172.665 370.538 172.603C328.512 172.839 289.326 191.627 264.931 226.229C260.035 233.174 254.618 244.478 254.781 253.234C255.029 258.317 258.164 262.865 260.568 267.155C268.674 281.619 273.281 297.452 279.068 312.881C279.851 314.967 281.158 316.617 282.831 318.058C287.768 318.883 293.037 309.661 294.837 305.659C299.698 294.851 301.059 283.035 302.321 271.395C302.987 265.26 302.836 257.095 304.537 251.338C308.295 247.765 313.118 245.457 317.304 242.373C321.03 239.628 325.373 235.57 329.249 233.277C338.517 227.796 355.15 229.825 365.044 232.503C361.81 234.33 356.555 236.212 352.993 237.914C342.82 242.774 332.701 250.01 326.936 259.891C336.215 260.032 346.687 256.218 355.134 257.566C362.353 259.126 370.501 262.22 374.77 268.585C377.094 272.05 380.801 280.762 380.095 284.74C379.221 285.122 378.411 284.975 377.671 284.375C366.147 275.034 352.57 270.124 340.693 282.312C339.287 283.754 338.13 285.044 338.173 287.16C342.205 290.734 354.772 289.33 361.089 296.138C367.673 303.233 369.185 313.954 369.265 323.028C364.906 316.993 360.298 311.458 353.384 308.759C331.883 300.364 318.242 320.306 309.704 336.757C307.158 341.658 303.689 346.284 301.781 351.496C294.063 372.578 296.616 379.408 317.2 387.022C315.746 387.838 314.229 388.535 312.663 389.107C291.4 397.015 282.511 379.281 273.823 364.621C267.747 356.476 261.05 347.113 251.541 342.772C250.073 342.103 244.744 339.962 244.566 342.835C244 352.031 248.639 367.35 252.215 375.483C264.21 402.771 285.506 422.201 311.752 435.577C318.11 438.883 328.022 442.39 334.652 444.903C330.456 458.266 321.667 477.733 316.179 490.662C310.181 504.789 304.173 519.711 297.942 533.662C268.38 522.065 240.819 508.132 216.613 487.11C175.042 450.469 149.638 398.879 145.939 343.585C142.523 293.927 153.094 244.128 181.224 202.523C214.769 152.909 266.389 117.006 324.905 103.882C338.393 100.857 352.001 99.7951 365.756 98.8555ZM680.567 395.702C684.068 395.224 693.111 395.422 696.879 395.398C729.207 395.204 765.128 402.293 794.945 414.588C825.655 427.251 852.412 445.467 873.907 470.778C883.769 481.761 892.568 493.545 899.563 506.589C930.014 563.376 933.857 630.568 909.158 690.223C894.89 724.685 871.624 752.864 841.727 775.073C831.754 782.481 818.748 791.526 807.212 796.136C800.993 789.556 784.011 748.014 779.359 737.383C778.203 734.743 774.805 724.27 773.737 721.037C776.881 718.032 781.278 714.753 784.723 711.979C819.048 684.299 830.617 649.72 825.036 606.264C821.485 583.111 811.489 561.424 796.185 543.691C755.857 496.119 689.153 490.758 632.084 502.626C561.028 517.404 493.168 547.451 419.723 550.738C410.832 551.136 400.322 552.168 391.538 551.377L390.934 551.316C392.536 544.931 397.056 534.416 399.627 527.988C403.95 516.955 408.339 505.946 412.793 494.959C417.058 484.447 425.623 461.296 430.57 452.498C444.256 451.795 461.45 447.632 474.651 444.312C536.195 428.832 595.377 405.977 658.674 397.639C665.739 396.708 673.41 396.286 680.567 395.702ZM808.844 280.365C814.064 281.102 831.629 293.611 835.827 297.787C856.559 318.417 877.365 334.793 908.283 322.628C904.501 327.498 902.356 330.36 897.266 333.91C893.942 336.228 887.206 337.637 886.243 338.942L887.121 339.682C889.123 340.623 901.986 346.917 902.564 348.403C902.329 348.619 902.009 348.951 901.685 348.993C889.775 350.513 877.014 348.027 866.833 341.562C858.136 336.04 850.091 329.099 843.234 321.414C836.091 313.411 829.774 304.694 822.788 296.566C818.405 291.469 813.767 286.574 809.148 281.691C809.047 281.249 808.945 280.807 808.844 280.365ZM690.916 71C695.516 71.8776 696.552 80.7829 698.313 85.4834C707.205 109.228 722.412 135.728 744.892 148.489C741.951 137.88 736.671 112.857 744.67 104.328C748.683 112.001 751.624 119.415 756.164 127.188C770.271 151.327 787.368 166.116 811.254 180.091C818.439 184.295 829.069 189.177 834.927 194.799C837.081 196.863 838.899 202.341 839.514 205.367C842.186 218.501 846.393 226.53 857.416 234.667C864.994 240.26 875.06 244.545 884.095 247.445C890.091 249.37 896.083 250.466 901.497 253.831C904.965 260.75 902.543 270.515 900.453 277.605C897.378 288.016 879.859 305.657 869.114 305.897L868.587 305.367C869.877 300.628 872.651 291.351 869.008 287.163C866.566 284.358 862.1 284.725 858.655 284.628C846.856 271.788 817.108 260.571 799.922 259.264C793.93 258.808 785.353 259.325 780.669 263.639C779.73 264.504 779.301 265.445 779.351 266.724C779.759 277.131 803.861 311.758 812.165 319.042C818.245 324.376 825.509 323.397 832.935 322.906C832.255 325.178 831.468 326.975 830.558 329.146C824.746 340.579 814.263 344.832 801.845 343.744C795.936 343.226 782.316 341.079 777.576 337.613C777.081 335.535 784.284 330.19 785.704 325.271L785.88 324.648C783.161 314.397 771.514 301.488 764.236 293.981C747.295 276.512 723.678 267.178 701.272 258.967C694.004 256.303 683.476 252.521 677.743 247.488C681.41 243.275 686.588 240.879 689.81 236.577C693.445 231.49 690.033 226.005 685.145 223.459C665.01 212.96 639.778 210.166 617.377 211.682C607.584 212.344 597.833 214.657 588.53 216.925C579.445 200.113 571.844 184.793 559.818 169.625C552.758 160.726 544.935 152.586 538.004 143.786C544.389 141.207 549.901 140.166 556.628 138.752C588.609 132.029 624.021 132.361 656.262 137.307C670.026 139.418 688.881 144.744 702.184 148.39C693.191 126.729 682.566 93.8414 690.916 71ZM787.664 201.095C790.905 217.532 804.767 227.206 821.292 225.432C815.207 210.193 803.033 204.07 787.664 201.095Z" fill="white"/>
</svg>
