<svg width="1024" height="1024" viewBox="0 0 1024 1024" fill="none" xmlns="http://www.w3.org/2000/svg">
<path d="M518.522 724.995C526.539 725.121 535.082 725.12 543.031 725.672C568.706 727.449 595.198 732.184 620.321 737.779C622.896 742.85 625.086 750.563 627.042 756.087C633.493 774.305 639.137 791.487 642.601 810.509C602.444 803.787 563.817 790.612 524.041 782.8C490.775 777.101 453.796 775.248 424.946 796.217C375.31 832.295 385.076 908.539 449.804 918.07C467.609 920.691 485.912 917.774 500.591 906.834C489.382 901.099 470.949 897.168 464.166 884.15C471.545 885.963 481.036 884.487 488.633 883.756C500.259 882.634 512.377 878.604 522.87 873.502C540.061 864.671 551.264 851.739 561.475 835.724C573.332 878.914 547.737 943.715 504.934 960.896C510.627 953.533 522.408 929.36 516.54 920.938C516.311 920.915 516.082 920.888 515.854 920.861C510.488 924.886 503.031 930.904 497.365 934.09C484.968 940.924 471.149 944.774 457.004 945.335C429.398 946.3 406.591 937.069 386.557 918.29C368.905 901.476 358.595 878.375 357.866 854.005C357.099 824.918 367.91 796.715 387.924 775.598C419.966 742.127 464.757 725.851 510.479 725.151C513.157 725.111 515.84 725.04 518.522 724.995ZM342.643 96.292C370.618 95.7516 396.217 98.8041 422.4 109.626C436.245 115.348 443.992 120.612 459.42 124.029C482.025 129.037 507.6 125.349 529.363 127.895L530.049 127.979C542.247 156.812 553.993 190.749 564.715 220.317L595.383 303.433C600.578 317.86 606.819 332.598 612.001 347.138C614.356 353.752 617.949 360.489 619.618 367.23C612.104 368.682 599.874 374.803 594.109 375.4C583.791 376.469 574.849 372.766 563.001 376.323C554.513 378.544 546.814 382.906 539.058 386.905C531.714 390.691 529.044 393.43 520.507 393.132C516.052 388.887 512.876 376.143 510.377 369.61C500.83 344.286 491.701 318.807 482.993 293.183C481.226 288.048 467.333 246.825 465.51 245.671C464.984 246.192 433.776 330.226 430.482 338.9L375.705 480.928C362.845 514.293 349.646 550.017 335.914 582.967C352.675 583.164 370.057 582.918 386.87 582.913L479.025 582.98C513.697 582.954 550.969 583.662 585.478 582.599C582.938 574.921 579.941 567.329 577.214 559.705L565.76 527.051C575.253 525.53 586.469 522.034 596.105 520.006C621.139 514.733 644.625 511.278 670.21 513.006C672.601 518.225 674.633 525.041 676.827 530.542C683.767 547.944 689.914 565.646 696.464 583.205L749.807 725.901C758.694 749.76 766.837 774.302 778.115 797.124C782.202 805.394 785.769 812.883 791.408 820.377C805.841 839.551 830.322 851.622 853.808 854.795C853.422 865.542 853.588 876.899 853.669 887.664C822.525 888.723 789.017 887.893 757.559 887.982C706.392 888.525 655.222 888.543 604.056 888.027C603.571 877.446 604.109 866.358 603.651 855.521C620.82 852.659 647.424 847.929 656.433 830.581C661.022 820.808 659.927 804.577 657.218 794.399C649.035 763.684 636.805 732.632 626.37 702.661C618.95 680.808 611.364 659.004 603.625 637.259L315.716 637.264C313.245 646.139 308.523 655.177 305.375 664.093C290.146 707.328 269.223 749.02 259.806 794.055C249.928 841.292 291.25 849.527 327.107 855.481C326.434 865.694 326.653 877.537 326.616 887.866L112.571 888.157C111.832 880.152 112.277 866.407 112.234 857.936C112.18 856.643 112.092 856.621 112.531 855.437C114.319 854.696 119.112 854.036 121.372 853.488C127.426 852.025 133.287 850.374 139.037 847.938C155.797 840.928 169.965 828.889 179.582 813.476C193.332 791.38 204.883 756.563 214.523 731.9C224.155 707.265 234.005 682.509 243.576 657.852L319.48 465.733C333.68 428.755 348.187 391.894 362.998 355.156C373.074 330.465 382.603 304.675 392.537 279.75L404.213 249.989C408.146 240.048 413.941 227.498 415.436 217.258C418.23 198.105 407.877 183.125 390.157 176.78C360.477 166.155 324.34 169.248 295.867 181.881C273.519 191.796 254.503 209.001 242.458 230.11C237.643 238.69 233.602 249.575 230.078 258.746C253.077 275.108 252.161 312.259 260.777 320.274C261.72 320.439 262.638 320.534 263.392 319.69C274.495 307.249 281.013 288.623 280.308 272.007C279.915 262.745 279.101 256.41 280.099 247.641C284.964 245.189 291.557 244.428 295.846 241.218C299.15 238.744 301.326 231.85 305.212 229.617C310.56 226.545 323.391 226.519 329.31 227.851C338.731 229.97 344.048 235.995 348.902 243.759C337.874 240.951 333.434 240.402 322.366 239.539C319.245 242.433 316.234 245.209 312.987 247.956C308.932 251.388 302.244 255.605 299.169 259.779L299.496 260.466C310.407 263.515 325.693 251.634 334.821 253.968C354.192 258.921 361.948 274.515 358.018 292.763C353.699 281.26 346.64 276.374 336.629 269.359C329.31 275.679 325.92 276.923 316.714 279.904C314.22 280.712 310.371 281.138 308.334 282.629L308.513 283.517C317.794 292.77 331.442 281.92 340.579 294.253C348.017 304.293 348.59 312.339 347.114 324.46C343.941 316.337 339.502 307.009 330.661 304.242L324.212 306.425C315.363 305.057 315.706 303.396 305.347 304.618C300.733 312.701 300.852 319.318 298.904 328.284C296.733 326.801 295.235 325.5 293.255 323.81C291.461 325.786 290.004 327.884 288.693 330.204C285.769 335.381 271.29 365.994 271.46 369.609C271.542 371.34 273.658 373.411 274.941 374.441C282.849 380.79 292.21 380.037 301.631 379.19C300.664 380.091 299.648 380.937 298.588 381.727C293.158 385.847 279.762 393.404 272.125 391.777C255.26 388.185 260.932 361.469 245.598 352.994C241.706 350.843 224.071 338.131 221.479 337.711C222.948 353.812 227.493 367.757 235.24 381.99C251.468 411.14 278.383 432.845 310.307 442.522C306.312 449.552 301.213 465.079 297.876 473.19C289.944 492.473 282.063 511.467 274.723 530.978C268.594 529.69 254.946 523.461 249.255 520.571C213.98 502.661 181.665 476.528 162.116 441.623C158.307 434.822 154.269 427.723 150.772 420.706C149.323 417.798 148.401 410.31 146.605 408.37C141.865 410.121 144.044 431.569 143.036 433.303C140.536 432.03 139.489 427.726 138.221 425.269C129.581 408.526 129.87 390.976 130.718 372.709C130.934 368.037 129.991 360.574 129.627 355.722C120.415 364.698 118.174 372.085 114.002 384.107C111.557 371.876 110.823 360.4 113.011 348.036C114.036 342.476 115.463 336.996 117.282 331.643C119.868 324.151 128.062 307.94 126.079 300.977C125.558 300.501 124.962 299.795 124.151 300.101C115.857 303.233 106.895 314.596 101 320.435C104.791 299.928 112.033 284.184 125.394 268.158C129.449 263.293 141.663 250.957 140.754 244.873C136.326 238.234 113.452 255.742 108.262 258.832L107.747 259.133C115.663 238.899 130.367 224.93 148.294 213.375C153.078 210.291 166.127 202.592 165.414 195.992C160.803 189.526 138.645 197.764 132.596 200.093C137.676 193.287 143.503 188.3 150.771 183.862C155.255 181.169 159.904 178.758 164.688 176.646C171.986 173.4 193.619 165.89 197.046 159.463C197.23 153.086 175.72 156.036 171.342 156.011L170.973 155.294C172 152.748 175.765 150.915 178.094 149.711C193.611 141.684 211.294 141.233 227.904 137.272C230.047 136.762 232.842 133.892 231.079 131.623C226.437 125.649 217.186 123.613 210.281 121.521C217.032 119.636 223.999 118.636 231.007 118.545C239.874 118.38 245.913 119.393 254.817 117.365C260.781 116.23 266.491 115.079 272.245 113.117C278.875 110.857 285.342 107.761 291.978 105.613C308.197 100.365 325.629 97.2728 342.643 96.292ZM650.994 375.854C641.47 379.501 623.947 392.406 625.055 403.854C629.219 407.22 652.152 392.506 657.49 389.969C676.144 381.098 697.966 375.978 718.571 377.776C707.782 380.331 696.037 385.74 689.478 395.138C688.186 396.989 686.724 399.089 686.777 401.42L687.096 401.833C688.482 403.623 696.44 401.704 698.526 401.117C711.245 397.539 723.529 392.378 736.821 391.342C753.147 390.07 767.589 391.137 782.95 396.995C776.001 397.796 746.198 402.618 745.714 411.688C746.683 413.165 748.895 413.47 750.595 413.461C770.316 413.353 789.271 409.797 808.795 415.45C817.682 418.023 826.4 420.246 834.116 425.493C826.911 425.541 800.128 425.707 796.911 433.088C798.903 438.046 811.42 438.373 816.377 439.171C824.452 440.481 832.362 442.688 839.953 445.753C854.385 451.695 870.253 462.168 880.101 474.365C872.057 471.58 847.122 462.577 840.303 468.625C837.781 475.502 864.433 484.935 869.513 487.639C885.165 495.972 903.6 514.038 909.158 530.896C902.003 526.432 882.676 512.638 874.215 517.564C871.842 522.877 898.643 544.169 903.331 550.743C916.027 568.544 919.814 580.279 922.102 601.222C916.956 595.105 905.605 577.003 896.417 577.402C891.94 581.822 903.672 600.763 905.816 605.865C914.52 626.736 915.655 649.99 909.02 671.609C908.284 665.354 901.182 636.869 892.757 638.264C889.733 641.526 892.021 657.865 892.662 662.801C895.435 684.093 893.86 707.804 880.725 726.215C880.81 720.376 881.577 692.56 874.632 691.366C872.052 694.126 871.011 701.36 870.19 705.125C865.121 728.495 861.029 750.666 841.989 766.843C844.17 761.354 851.244 741.19 846.785 736.46C843.218 736.622 829.158 763.361 825.668 767.772C820.949 773.731 817.808 780.121 811.339 785.093L810.841 785.47C807.467 787.579 804.116 790.033 800.854 792.34C802.443 789.104 814.304 769.679 809.36 766.91C807.162 768.099 802.999 771.708 800.801 773.399C796.857 776.437 793.99 778.331 789.746 780.889C784.861 772.587 779.958 758.061 776.615 748.831C772.057 736.145 767.346 723.514 762.479 710.94C786.041 686.35 800.63 666.157 804.04 631.039C810.352 565.982 762.64 516.864 702.959 500.86C674.327 493.183 651.51 494.138 622.483 497.87C603.735 500.456 585.153 504.121 566.822 508.844C503.794 525.727 435.113 555.097 368.465 549.712C370.31 542.878 377.827 525.332 380.704 517.556C386.368 501.968 392.268 486.464 398.4 471.054C400.963 464.472 402.877 457.34 406.312 451.16C410.979 442.765 447.194 424.841 457.996 421.825C453.525 425.353 435.111 443.565 439.959 448.583C447.908 450.791 467.177 432.664 473.999 427.182C477.275 424.576 480.684 422.142 484.212 419.89C493.677 413.811 500.851 410.494 511.129 406.332C506.683 411.134 503.18 415.307 501.39 421.812C500.627 424.587 500.209 429.795 501.641 432.39C509.559 434.461 526.908 416.753 532.938 411.974C546.481 401.24 560.608 392.24 577.898 388.778C573.829 393.039 560.406 408.317 563.668 414.785C571.03 416.05 596.893 393.627 606.319 389.435C622.241 382.354 627.415 379.492 644.602 376.232C646.392 376.028 649.123 375.961 650.994 375.854ZM768.234 265.578C770.724 265.724 777.889 268.061 780.393 269.087C794.852 275.022 807.198 285.594 817.745 296.947C822.918 302.213 828.243 308.568 834.196 312.913C849.468 324.06 870.59 331.74 889.006 323.838C892.191 322.472 896.144 319.832 899.369 318.146C897.548 322.936 894.627 327.234 890.845 330.692C881.59 339.128 871.63 337.932 860.199 337.412C868.014 342.227 870.59 343.545 879.302 346.317C894.546 350.257 899.068 348.22 913.842 344.914C901.796 353.552 893.169 357.653 877.776 356.53C841.787 353.904 824.614 320.268 802.276 297.256C791.209 285.855 778.472 277.193 768.234 265.578ZM667.755 62C669.742 68.5598 671.461 75.4155 673.749 81.8301C683.848 110.138 703.296 135.948 728.531 152.56C721.201 133.423 715.678 116.458 726.611 97.6709C727.154 107.679 731.223 118.152 735.75 126.843C747.374 149.16 763.726 162.973 784.893 175.574C794.736 181.436 801.129 185.689 808.917 194.557C815.121 201.617 813.928 210.017 817.67 216.375C824.166 227.413 844.794 238.006 856.902 241.882C858.603 242.426 859.693 242.403 861.11 241.577C862.775 238.228 861.994 230.875 861.375 227.19C879.266 239.201 886.682 265.233 876.323 284.543C861.94 287.634 863.237 298.21 844.516 299.914C844.847 299.412 845.17 298.905 845.484 298.393C851.792 288.16 852.761 276.207 837.625 275.874C831.506 275.74 828.428 276.85 822.708 278.7C821.281 275.484 818.885 269.499 816.489 267.108C805.422 256.071 784.48 259.017 769.761 254.268C763.825 252.353 749.42 243.938 746.355 243.72L746.001 244.346C746.939 248.592 753.085 257.14 755.359 262.365C759.357 271.3 762.788 280.558 766.503 289.613C774.157 308.262 783.435 329.111 807.616 318.973C807.863 331.359 799.5 342.688 786.705 344.119C768.195 346.189 753.627 341.685 738.813 330.763L742.86 330.62C750.447 330.312 753.924 329.969 759.235 324.219C757.423 318.819 754.193 312.84 751.721 307.856C743.156 290.589 729.096 277.702 709.756 274.132C694.929 271.395 686.939 271.665 672.834 263.785C662.273 257.887 652.802 248.969 649.37 236.848C664.888 244.622 672.874 249.256 691.34 247.279C687.98 245.019 682.699 239.222 679.114 236.083C667.724 226.114 652.255 218.986 637.813 214.8C624.96 211.074 592.161 205.384 580.667 211.771C577.54 205.238 572.982 192.261 570.188 185.044C565.495 173.017 561.049 160.892 556.863 148.679C554.683 142.458 551.749 134.704 550.098 128.463C559.802 128.499 569.035 131.253 577.989 134.806C581.803 136.318 590.874 141.254 594.458 139.16C594.871 138.46 595.059 138.192 595.086 137.331C595.427 127.812 587.635 122.635 581.901 116.413C596.203 118.422 610.762 126.223 622.381 134.788C624.09 136.048 638.895 153.703 639.595 140.565C640.021 132.623 632.897 125.147 627.253 119.988C648.401 122.472 660.788 139.498 674.776 153.021C679.604 157.706 684.825 161.966 690.384 165.754C692.443 167.179 699.603 172.218 701.847 170.657C701.618 168.751 690.577 155.894 688.585 153.108C669.778 126.828 658.859 94.5104 667.172 62H667.755ZM758.098 193.57C764.307 215.745 774.056 223.702 797.304 221.68C790.794 208.995 771.79 196.623 758.098 193.57Z" fill="white"/>
</svg>
